<svg xmlns="http://www.w3.org/2000/svg" viewBox="0 0 31.76 31.76"><path d="M259,155.15a15.85,15.85,0,0,0-10.53,4l0,0a.93.93,0,0,1-.05.1A15.88,15.88,0,1,0,259,155.15Zm-5,29v0a14.4,14.4,0,0,1-1.55-.7,17,17,0,0,0,10-6.87,14.42,14.42,0,0,0,2-4.62,9.55,9.55,0,0,1,3.3,2.1C266.41,176.79,261.86,184.39,254,184.11Zm9.61-14.3a9.66,9.66,0,0,0-4.35.16,8.69,8.69,0,0,1-1.65-3.07c2.29-.63,9.05-1.63,15.3,5.91a13.81,13.81,0,0,1-1,3.62C270.24,173.59,267.55,170.58,263.61,169.81Zm-13.81-9.38a13.57,13.57,0,0,1,1.49-1.13,16.93,16.93,0,0,0,.93,11.91,14.39,14.39,0,0,0,2.88,4,9.65,9.65,0,0,1-3.35,1.94C250.15,174.68,245.9,167.06,249.8,160.43Zm3.77-2.35a14,14,0,0,1,3.16-.91c-3.26,7.87-.09,12.59,1.18,14.06a12.18,12.18,0,0,1-1.56,2.63C254.58,172.15,250.53,167,253.57,158.08Zm8.56,6.58a14.46,14.46,0,0,0-4.9.43,12.43,12.43,0,0,1,.18-3.87c3.08-.11,11.82.24,15.37,7.18a14.18,14.18,0,0,1,.22,1.75A17,17,0,0,0,262.13,164.66Zm8.25-1.83a17.74,17.74,0,0,0-7-3,25.74,25.74,0,0,0-5.46-.49,21.36,21.36,0,0,1,.93-2.37H259A14,14,0,0,1,270.38,162.83Zm-23.93,1.9a17.37,17.37,0,0,0,1,7.9,25.85,25.85,0,0,0,2.38,5,11.29,11.29,0,0,1-3.26,0,14,14,0,0,1-.13-12.84Zm1.36,14.77h.3a12,12,0,0,0,11.57-7.75,7.4,7.4,0,0,1,3-.24c-.54,2.28-2.89,8.64-12.37,10.54A13.83,13.83,0,0,1,247.81,179.5Zm11.4,5.56a17,17,0,0,0,6.88-5.09,26,26,0,0,0,3-4.45,19.41,19.41,0,0,1,1.83,2.86A14,14,0,0,1,259.21,185.06Z" transform="translate(-243.11 -155.15)" style="fill:#424242"/></svg>