<svg xmlns="http://www.w3.org/2000/svg" viewBox="0 0 33.6 45.42"><polygon points="10.05 26.4 12.7 34.46 21.02 34.44 23.55 26.47 16.84 21.38 10.05 26.4" style="fill:#424242"/><path d="M257.47,154.89a16.81,16.81,0,1,0,16.8,16.8A16.81,16.81,0,0,0,257.47,154.89Zm12.27,26.49a12.41,12.41,0,0,1,.41-2.19c-2.85,2.45-4.6,2.47-4.6,2.47l-3.38-3.54,2.31,4.18c-.75,2-3.93,3.73-3.93,3.73a8.68,8.68,0,0,1,2.47.29,15.71,15.71,0,0,1-5.55,1,15.53,15.53,0,0,1-5.55-1,9.26,9.26,0,0,1,2.5-.29s-3.18-1.72-3.93-3.73l2.31-4.18-3.37,3.54s-1.76,0-4.61-2.47a12.42,12.42,0,0,1,.41,2.24,15.58,15.58,0,0,1-3.41-9.74c0-.25,0-.5,0-.75a10.5,10.5,0,0,1,1.19,2.45s.61-3.57,2.27-4.92l4.69.85-4.42-2.06s-.55-1.67.85-5.16a11.68,11.68,0,0,1-2.12,1.16,15.7,15.7,0,0,1,9.32-6.73,10.3,10.3,0,0,1-2.05,1.88s3.6-.44,5.37.77l.53,4.74.71-4.83s1.44-1,5.18-.66a10.81,10.81,0,0,1-1.81-1.84,15.73,15.73,0,0,1,9.1,6.69,11.05,11.05,0,0,1-2.18-1.18c1.4,3.49.85,5.16.85,5.16l-4.43,2.06,4.7-.85c1.66,1.35,2.27,4.92,2.27,4.92a10.57,10.57,0,0,1,1.23-2.52c0,.27,0,.55,0,.82A15.57,15.57,0,0,1,269.74,181.38Z" transform="translate(-240.66 -143.07)" style="fill:#424242"/><polyline points="5.87 13.47 5.15 10.27 28.49 10.27 27.8 13.43" style="fill:#424242"/><path d="M251.38,148.06l.07,0a2,2,0,1,0,3.83,1,2,2,0,0,0-1.45-1.95L254,147l3.49-4L261,147l.23.1a2,2,0,1,0,2.64,2,2,2,0,0,0-.23-.93l7.3-2.4-1.41,6.42-24,.07-1.42-6.41Z" transform="translate(-240.66 -143.07)" style="fill:#424242"/></svg>