<svg xmlns="http://www.w3.org/2000/svg" viewBox="0 0 29.85 41.2"><polyline points="4.56 12.76 3.88 9.72 25.97 9.72 25.32 12.72" style="fill:#424242"/><path d="M206.36,59.6l0,0a2,2,0,0,0-.25,1,1.94,1.94,0,1,0,2.51-1.85l.16-.06,3.31-3.74,3.27,3.7.22.09a1.94,1.94,0,1,0,2.5,1.86,1.92,1.92,0,0,0-.22-.89l6.91-2.26-1.34,6.07-22.69.06-1.35-6.06Z" transform="translate(-197.2 -54.88)" style="fill:#424242"/><path d="M212.13,66.23a14.91,14.91,0,0,0-9.9,3.75l0,0-.06.09a14.93,14.93,0,1,0,10-3.82Zm-4.69,27.21v0a12.78,12.78,0,0,1-1.46-.66,15.91,15.91,0,0,0,9.41-6.45,13.51,13.51,0,0,0,1.9-4.35,9.27,9.27,0,0,1,3.1,2C219.1,86.57,214.83,93.71,207.44,93.44Zm9-13.43a9,9,0,0,0-4.09.15,8.22,8.22,0,0,1-1.55-2.89c2.16-.59,8.51-1.53,14.38,5.55a13.21,13.21,0,0,1-.9,3.4C222.7,83.56,220.17,80.73,216.47,80Zm-13-8.82a13.19,13.19,0,0,1,1.4-1.06,16,16,0,0,0,.87,11.2,14,14,0,0,0,2.71,3.75,8.93,8.93,0,0,1-3.15,1.81C203.82,84.59,199.82,77.43,203.49,71.19ZM207,69a13.35,13.35,0,0,1,3-.85c-3.07,7.39-.1,11.83,1.1,13.21a11.67,11.67,0,0,1-1.46,2.48C208,82.21,204.18,77.41,207,69Zm8,6.19a13.72,13.72,0,0,0-4.61.4,11.84,11.84,0,0,1,.17-3.64c2.9-.1,11.11.23,14.45,6.75a12.88,12.88,0,0,1,.2,1.64A16,16,0,0,0,215.08,75.17Zm7.75-1.72a16.47,16.47,0,0,0-6.61-2.8,24.39,24.39,0,0,0-5.13-.47A20.79,20.79,0,0,1,212,68h.16A13.19,13.19,0,0,1,222.83,73.45Zm-22.49,1.78a16.37,16.37,0,0,0,.95,7.43,24.44,24.44,0,0,0,2.24,4.65,10.71,10.71,0,0,1-3.07,0,13.13,13.13,0,0,1-.12-12.07Zm1.28,13.89h.28a11.29,11.29,0,0,0,10.88-7.28,7,7,0,0,1,2.83-.22c-.51,2.14-2.72,8.12-11.63,9.9A13.08,13.08,0,0,1,201.62,89.12Zm10.71,5.22a15.93,15.93,0,0,0,6.47-4.79,24.22,24.22,0,0,0,2.83-4.17,17.17,17.17,0,0,1,1.73,2.69A13.19,13.19,0,0,1,212.33,94.34Z" transform="translate(-197.2 -54.88)" style="fill:#424242"/></svg>